<svg width="1180" height="610" viewBox="0 0 1180 610" xmlns="http://www.w3.org/2000/svg" xmlns:xlink="http://www.w3.org/1999/xlink">
<defs>
  <linearGradient id="bgGrad" x1="0%" y1="0%" x2="100%" y2="100%">
    <stop offset="0%" stop-color="#FFFFFF"/>
    <stop offset="100%" stop-color="#FAFBFC"/>
  </linearGradient>

  <linearGradient id="accentGrad" x1="0%" y1="0%" x2="100%" y2="100%">
    <stop offset="0%" stop-color="#2563EB"/>
    <stop offset="50%" stop-color="#06B6D4"/>
    <stop offset="100%" stop-color="#10B981"/>
    <animate attributeName="x1" values="0%;100%;0%" dur="8s" repeatCount="indefinite"/>
    <animate attributeName="x2" values="100%;0%;100%" dur="8s" repeatCount="indefinite"/>
  </linearGradient>

  <linearGradient id="asciiGrad" x1="0%" y1="0%" x2="100%" y2="100%">
    <stop offset="0%" stop-color="#2563EB"/>
    <stop offset="50%" stop-color="#06B6D4"/>
    <stop offset="100%" stop-color="#2563EB"/>
    <animate attributeName="x1" values="-50%;150%;-50%" dur="5s" repeatCount="indefinite"/>
    <animate attributeName="x2" values="50%;250%;50%" dur="5s" repeatCount="indefinite"/>
  </linearGradient>

  <linearGradient id="panelGrad" x1="0%" y1="0%" x2="100%" y2="100%">
    <stop offset="0%" stop-color="#F8FAFC" stop-opacity="0.9"/>
    <stop offset="100%" stop-color="#F1F5F9" stop-opacity="0.9"/>
  </linearGradient>

  <linearGradient id="borderShimmer" x1="0%" y1="0%" x2="100%" y2="0%">
    <stop offset="0%" stop-color="#2563EB" stop-opacity="0"/>
    <stop offset="50%" stop-color="#06B6D4" stop-opacity="0.9"/>
    <stop offset="100%" stop-color="#10B981" stop-opacity="0"/>
    <animateTransform attributeName="gradientTransform" type="translate" from="-400 0" to="1400 0" dur="4s" repeatCount="indefinite"/>
  </linearGradient>

  <radialGradient id="glowPurple" cx="50%" cy="50%" r="50%">
    <stop offset="0%" stop-color="#2563EB" stop-opacity="0.18"/>
    <stop offset="100%" stop-color="#2563EB" stop-opacity="0"/>
  </radialGradient>
  <radialGradient id="glowCyan" cx="50%" cy="50%" r="50%">
    <stop offset="0%" stop-color="#06B6D4" stop-opacity="0.15"/>
    <stop offset="100%" stop-color="#06B6D4" stop-opacity="0"/>
  </radialGradient>
  <radialGradient id="glowEmerald" cx="50%" cy="50%" r="50%">
    <stop offset="0%" stop-color="#10B981" stop-opacity="0.12"/>
    <stop offset="100%" stop-color="#10B981" stop-opacity="0"/>
  </radialGradient>

  <filter id="softBlur" x="-50%" y="-50%" width="200%" height="200%">
    <feGaussianBlur stdDeviation="18"/>
  </filter>
  <filter id="glassBlur" x="-20%" y="-20%" width="140%" height="140%">
    <feGaussianBlur stdDeviation="6"/>
  </filter>
  <filter id="textGlow" x="-50%" y="-50%" width="200%" height="200%">
    <feGaussianBlur stdDeviation="2.2" result="b"/>
    <feMerge>
      <feMergeNode in="b"/>
      <feMergeNode in="SourceGraphic"/>
    </feMerge>
  </filter>
  <filter id="pillGlow" x="-60%" y="-60%" width="220%" height="220%">
    <feGaussianBlur stdDeviation="4" result="b"/>
    <feMerge>
      <feMergeNode in="b"/>
      <feMergeNode in="SourceGraphic"/>
    </feMerge>
  </filter>

  <clipPath id="canvasClip">
    <rect x="0" y="0" width="1180" height="610" rx="28"/>
  </clipPath>
  <clipPath id="leftClip">
    <rect x="24" y="24" width="424" height="562" rx="20"/>
  </clipPath>

  <filter id="noiseFilter">
    <feTurbulence type="fractalNoise" baseFrequency="0.9" numOctaves="2" stitchTiles="stitch" result="noise"/>
    <feColorMatrix in="noise" type="matrix" values="0 0 0 0 0  0 0 0 0 0  0 0 0 0 0  0 0 0 0.015 0"/>
  </filter>
</defs>

<g clip-path="url(#canvasClip)">
  <rect x="0" y="0" width="1180" height="610" fill="url(#bgGrad)"/>
  <rect x="0" y="0" width="1180" height="610" filter="url(#noiseFilter)"/>

  <!-- floating background glows -->
  <circle cx="150" cy="120" r="220" fill="url(#glowPurple)">
    <animate attributeName="cx" values="150;220;150" dur="14s" repeatCount="indefinite"/>
    <animate attributeName="cy" values="120;180;120" dur="16s" repeatCount="indefinite"/>
  </circle>
  <circle cx="950" cy="480" r="260" fill="url(#glowCyan)">
    <animate attributeName="cx" values="950;880;950" dur="15s" repeatCount="indefinite"/>
    <animate attributeName="cy" values="480;420;480" dur="13s" repeatCount="indefinite"/>
  </circle>
  <circle cx="700" cy="80" r="200" fill="url(#glowEmerald)">
    <animate attributeName="cx" values="700;760;700" dur="18s" repeatCount="indefinite"/>
  </circle>

  <!-- moving scanline across whole canvas -->
  <rect x="0" y="-40" width="1180" height="40" fill="#06B6D4" opacity="0.04">
    <animate attributeName="y" values="-40;650" dur="6s" repeatCount="indefinite"/>
  </rect>

  <!-- tiny particles -->
  <g fill="#06B6D4">
    <circle cx="90" cy="500" r="2" opacity="0.6"><animate attributeName="cy" values="500;60;500" dur="12s" repeatCount="indefinite"/><animate attributeName="opacity" values="0;0.7;0" dur="12s" repeatCount="indefinite"/></circle>
    <circle cx="380" cy="560" r="1.6" opacity="0.5"><animate attributeName="cy" values="560;40;560" dur="9s" repeatCount="indefinite"/><animate attributeName="opacity" values="0;0.6;0" dur="9s" repeatCount="indefinite"/></circle>
    <circle cx="700" cy="580" r="2" fill="#2563EB" opacity="0.5"><animate attributeName="cy" values="580;30;580" dur="11s" repeatCount="indefinite"/><animate attributeName="opacity" values="0;0.6;0" dur="11s" repeatCount="indefinite"/></circle>
    <circle cx="1050" cy="540" r="1.8" fill="#10B981" opacity="0.5"><animate attributeName="cy" values="540;20;540" dur="10s" repeatCount="indefinite"/><animate attributeName="opacity" values="0;0.6;0" dur="10s" repeatCount="indefinite"/></circle>
    <circle cx="230" cy="480" r="1.5" opacity="0.4"><animate attributeName="cy" values="480;10;480" dur="13s" repeatCount="indefinite"/><animate attributeName="opacity" values="0;0.5;0" dur="13s" repeatCount="indefinite"/></circle>
  </g>

  <!-- outer border shimmer -->
  <rect x="1.5" y="1.5" width="1177" height="607" rx="27" fill="none" stroke="rgba(15,23,42,0.08)" stroke-width="1"/>
  <rect x="1.5" y="1.5" width="1177" height="607" rx="27" fill="none" stroke="url(#borderShimmer)" stroke-width="1.4"/>

  <!-- ============ LEFT PANEL: ASCII PORTRAIT ============ -->
  <g>
    <rect x="24" y="24" width="424" height="562" rx="20" fill="url(#panelGrad)" filter="url(#glassBlur)"/>
    <rect x="24" y="24" width="424" height="562" rx="20" fill="url(#panelGrad)" opacity="0.6"/>
    <rect x="24.5" y="24.5" width="423" height="561" rx="19.5" fill="none" stroke="rgba(15,23,42,0.08)" stroke-width="1"/>
    <rect x="24.5" y="24.5" width="423" height="561" rx="19.5" fill="none" stroke="url(#borderShimmer)" stroke-width="1"/>

    <!-- glass reflection -->
    <path d="M 30 30 L 200 30 L 60 200 L 30 200 Z" fill="rgba(15,23,42,0.025)"/>

    <g clip-path="url(#leftClip)">
            <!-- floating ascii block -->
      <g font-family="'JetBrains Mono','Courier New',monospace" font-size="5.4" fill="url(#asciiGrad)" filter="url(#textGlow)" xml:space="preserve">
        <animateTransform attributeName="transform" type="translate" values="0 0; 0 -6; 0 0" dur="6s" repeatCount="indefinite" additive="sum"/>
        <text x="34" y="55.0" opacity="0">=---==-=+***+++=----===++++++==-:::-=+++++=++++++++==++**+++==+++=========
          <animate attributeName="opacity" begin="0.1s" dur="0.01s" fill="freeze" to="1"/>
        </text>
        <text x="34" y="66.8" opacity="0">----==-=+*###***++==----===++==-:::-=++++++====+++++++***+++======---=====
          <animate attributeName="opacity" begin="0.15s" dur="0.01s" fill="freeze" to="1"/>
        </text>
        <text x="34" y="78.6" opacity="0">----==--=****#***+=-::::-------::::-=+++++======++++++**+===-------===--==
          <animate attributeName="opacity" begin="0.2s" dur="0.01s" fill="freeze" to="1"/>
        </text>
        <text x="34" y="90.4" opacity="0">=---==------=++=-::.:.::-===-::...:-=++*++===++++++=========----========++
          <animate attributeName="opacity" begin="0.25s" dur="0.01s" fill="freeze" to="1"/>
        </text>
        <text x="34" y="102.2" opacity="0">=---==--::..::.....::.:-=++=-:::..:-=+++++==++++====----=====--=+++++===++
          <animate attributeName="opacity" begin="0.3s" dur="0.01s" fill="freeze" to="1"/>
        </text>
        <text x="34" y="114.0" opacity="0">---==----=---::...:::::-+*+=--:::::-=+++++===========-===+++===++++++++++*
          <animate attributeName="opacity" begin="0.35s" dur="0.01s" fill="freeze" to="1"/>
        </text>
        <text x="34" y="125.8" opacity="0">::-==---=++++===--:::::-=+==---:::--==++===---==+++====+++++===++++***+***
          <animate attributeName="opacity" begin="0.4s" dur="0.01s" fill="freeze" to="1"/>
        </text>
        <text x="34" y="137.6" opacity="0">---==----===+++++++===---------:::--===+===-===+++++==+++++++=+*******++++
          <animate attributeName="opacity" begin="0.45s" dur="0.01s" fill="freeze" to="1"/>
        </text>
        <text x="34" y="149.4" opacity="0">---==-------===+++++++++===---::::--=++++=====-:..:.-++**++++++**++++==--=
          <animate attributeName="opacity" begin="0.5s" dur="0.01s" fill="freeze" to="1"/>
        </text>
        <text x="34" y="161.2" opacity="0">--=====+++-----=====+++++++++=-:.::-=+++++==:..      --:=++++==========-=+
          <animate attributeName="opacity" begin="0.55s" dur="0.01s" fill="freeze" to="1"/>
        </text>
        <text x="34" y="173.0" opacity="0">:-===-+*##**+++----======++++=--:::-=++++=:.- .:=++++: :.:-++=--=+++++=-=+
          <animate attributeName="opacity" begin="0.6s" dur="0.01s" fill="freeze" to="1"/>
        </text>
        <text x="34" y="184.8" opacity="0">:-==--+**####**+=-::-----==----:.::-=++-......-===**#*+: .-=+===++++++===+
          <animate attributeName="opacity" begin="0.65s" dur="0.01s" fill="freeze" to="1"/>
        </text>
        <text x="34" y="196.6" opacity="0">--==--=+++++++=-:::::::-===-:::..::-==-:....  ::.:-=:..:..:=====+****++++*
          <animate attributeName="opacity" begin="0.7s" dur="0.01s" fill="freeze" to="1"/>
        </text>
        <text x="34" y="208.4" opacity="0">--=======.......:::::::=+++-:::..::--:::.  ..:==-+***=::: .:+=+++****++***
          <animate attributeName="opacity" begin="0.75s" dur="0.01s" fill="freeze" to="1"/>
        </text>
        <text x="34" y="220.2" opacity="0">--====++*=:....:-----:-=+*+=--::::--:..   .:+*****=-:=**+ .:=+++***++++++=
          <animate attributeName="opacity" begin="0.8s" dur="0.01s" fill="freeze" to="1"/>
        </text>
        <text x="34" y="232.0" opacity="0">--=---+*##+-:::--------=+++=---:::---.   .:-++**=:==--+++...-++++++====---
          <animate attributeName="opacity" begin="0.85s" dur="0.01s" fill="freeze" to="1"/>
        </text>
        <text x="34" y="243.8" opacity="0">-==---=*###*+++**++----=+++=--::::---.  .:-=++++====-==+= .:=========+====
          <animate attributeName="opacity" begin="0.9s" dur="0.01s" fill="freeze" to="1"/>
        </text>
        <text x="34" y="255.6" opacity="0">-==----=+*******##*++==++++=--:.:::-:: . ..:------:::--=:  --=--=++++++===
          <animate attributeName="opacity" begin="0.95s" dur="0.01s" fill="freeze" to="1"/>
        </text>
        <text x="34" y="267.4" opacity="0">-==------===++++***#*****++=--::::--:::.   -=---::-::::.  ::=+=-=++++++==+
          <animate attributeName="opacity" begin="1.0s" dur="0.01s" fill="freeze" to="1"/>
        </text>
        <text x="34" y="279.2" opacity="0">-==-----------====++++*****+==--=+++-:. .  -====-----=-   ::++=-=+****++++
          <animate attributeName="opacity" begin="1.05s" dur="0.01s" fill="freeze" to="1"/>
        </text>
        <text x="34" y="291.0" opacity="0">-=--=*##*+++------======+++++==--====:.     +++====-==-  -.=++=++*********
          <animate attributeName="opacity" begin="1.1s" dur="0.01s" fill="freeze" to="1"/>
        </text>
        <text x="34" y="302.8" opacity="0">-=-:=*##%%###*==:::-----===----:.::-==...   =++===--===-  :++++++**+++++++
          <animate attributeName="opacity" begin="1.15s" dur="0.01s" fill="freeze" to="1"/>
        </text>
        <text x="34" y="314.6" opacity="0">-=-:==+++***+=-:::....:----:::....:-==+=::..-+=========%#####*+=========--
          <animate attributeName="opacity" begin="1.2s" dur="0.01s" fill="freeze" to="1"/>
        </text>
        <text x="34" y="326.4" opacity="0">-=-:===:........:::...-=++-::::...:-=++++++***+=++###*#%%%%%%%%%%%%%#+++==
          <animate attributeName="opacity" begin="1.25s" dur="0.01s" fill="freeze" to="1"/>
        </text>
        <text x="34" y="338.2" opacity="0">=---===..............:-+++=---:::::-==+++*#%############%%%%%%##*%#%%%#+=+
          <animate attributeName="opacity" begin="1.3s" dur="0.01s" fill="freeze" to="1"/>
        </text>
        <text x="34" y="350.0" opacity="0">=---===:..........::::-+++=-::::::--=#*%%####%##%*#%##%%%%%%%*#*#%####%*==
          <animate attributeName="opacity" begin="1.35s" dur="0.01s" fill="freeze" to="1"/>
        </text>
        <text x="34" y="361.8" opacity="0">---::---::........::::-+++=--:...%%%*#%%#%##%####%%#%%%%%%%%####*#*+#*#%==
          <animate attributeName="opacity" begin="1.4s" dur="0.01s" fill="freeze" to="1"/>
        </text>
        <text x="34" y="373.6" opacity="0">=-::---===---:::::::::-===---:.-%##*#%##%#%%###*%%#%%%%%%#%%-*#%++*#%##%*+
          <animate attributeName="opacity" begin="1.45s" dur="0.01s" fill="freeze" to="1"/>
        </text>
        <text x="34" y="385.4" opacity="0">=-:-==+++++====-----:::--::--=%%#**#%#%%#%%##%*%%#%%%%%%#%%#-**+*%%#*#%##+
          <animate attributeName="opacity" begin="1.5s" dur="0.01s" fill="freeze" to="1"/>
        </text>
        <text x="34" y="397.2" opacity="0">--:-=++++++++++=====------:-%%%%#%#%#%%%%%##%**%%%%%%%%%%#**#**#%##%%###%+
          <animate attributeName="opacity" begin="1.55s" dur="0.01s" fill="freeze" to="1"/>
        </text>
        <text x="34" y="409.0" opacity="0">--::---===++++++++++++++++==%######%%%%%%####*#%%%%######*+#*#%%#%%#####%=
          <animate attributeName="opacity" begin="1.6s" dur="0.01s" fill="freeze" to="1"/>
        </text>
        <text x="34" y="420.8" opacity="0">=--------------=====+++++++*%###*##%%%####*##*#%%%###**++*###%#%#**%##%%#-
          <animate attributeName="opacity" begin="1.65s" dur="0.01s" fill="freeze" to="1"/>
        </text>
        <text x="34" y="432.6" opacity="0">=-==-:::::--------::::::--+%%##+#*#%###**#*#**#%%%#####%*##%%%**%%%#####*.
          <animate attributeName="opacity" begin="1.7s" dur="0.01s" fill="freeze" to="1"/>
        </text>
        <text x="34" y="444.4" opacity="0">---==:  ......:::::::::::+%%%%##+=#******#*#-:          .%%#*#%%%%%#####*.
          <animate attributeName="opacity" begin="1.75s" dur="0.01s" fill="freeze" to="1"/>
        </text>
        <text x="34" y="456.2" opacity="0">::-==:....  .....:::::::#%%%%%##+==+*++*#***###****#*++=##*#%%%%%#######*.
          <animate attributeName="opacity" begin="1.8s" dur="0.01s" fill="freeze" to="1"/>
        </text>
        <text x="34" y="468.0" opacity="0">:::::::--------:::....-%%%%%##**+--=+++*%***#**##**###*#%#%%%%%%%#%#####*.
          <animate attributeName="opacity" begin="1.85s" dur="0.01s" fill="freeze" to="1"/>
        </text>
        <text x="34" y="479.8" opacity="0">-::...:::::::::::::..:=%%%#%%%#++-:-+*#####**+========+**+====--:+######*.
          <animate attributeName="opacity" begin="1.9s" dur="0.01s" fill="freeze" to="1"/>
        </text>
      </g>
</g>

    <!-- scanline sweep inside panel -->
    <rect x="24" y="24" width="424" height="6" fill="#06B6D4" opacity="0.08">
      <animate attributeName="y" values="24;580;24" dur="4.5s" repeatCount="indefinite"/>
    </rect>

    <!-- caption under ascii -->
    <text x="236" y="530" text-anchor="middle" font-family="'JetBrains Mono',monospace" font-size="13" fill="#475569" letter-spacing="2">
      &lt; BUILDING THE FUTURE /&gt;
      <animate attributeName="opacity" values="0;1" begin="4.4s" dur="0.6s" fill="freeze"/>
    </text>
    <rect x="176" y="546" width="10" height="16" fill="#06B6D4" opacity="0">
      <animate attributeName="opacity" values="0;1;0" begin="5s" dur="1s" repeatCount="indefinite"/>
    </rect>
  </g>

  <!-- ============ RIGHT PANEL: TERMINAL ============ -->
  <g>
    <rect x="472" y="24" width="684" height="562" rx="20" fill="url(#panelGrad)" filter="url(#glassBlur)"/>
    <rect x="472" y="24" width="684" height="562" rx="20" fill="url(#panelGrad)" opacity="0.6"/>
    <rect x="472.5" y="24.5" width="683" height="561" rx="19.5" fill="none" stroke="rgba(15,23,42,0.08)" stroke-width="1"/>
    <rect x="472.5" y="24.5" width="683" height="561" rx="19.5" fill="none" stroke="url(#borderShimmer)" stroke-width="1"/>
    <path d="M 478 30 L 700 30 L 550 250 L 478 250 Z" fill="rgba(15,23,42,0.02)"/>

    <!-- terminal top bar -->
    <rect x="472" y="24" width="684" height="40" rx="20" fill="rgba(15,23,42,0.025)"/>
    <rect x="472" y="44" width="684" height="20" fill="rgba(15,23,42,0.025)"/>
    <circle cx="500" cy="44" r="6" fill="#FF5F56"/>
    <circle cx="520" cy="44" r="6" fill="#FFBD2E"/>
    <circle cx="540" cy="44" r="6" fill="#27C93F"/>
    <text x="814" y="49" text-anchor="middle" font-family="'JetBrains Mono',monospace" font-size="12" fill="#475569">~/soelnvc — zsh</text>

    <!-- greeting -->
    <text x="504" y="105" font-family="'JetBrains Mono',monospace" font-size="22" fill="#0F172A" opacity="0">
      Hi 👋
      <animate attributeName="opacity" begin="0.3s" dur="0.4s" fill="freeze" to="1"/>
    </text>
    <text x="504" y="140" font-family="'JetBrains Mono',monospace" font-size="26" font-weight="700" fill="url(#accentGrad)" filter="url(#textGlow)" opacity="0">
      I'm Siddhesh Goel
      <animate attributeName="opacity" begin="0.9s" dur="0.5s" fill="freeze" to="1"/>
    </text>

    <!-- typing role text -->
    <text x="504" y="172" font-family="'JetBrains Mono',monospace" font-size="17" fill="#06B6D4">
      <tspan>&gt;&#160;</tspan><tspan id="roletxt">Frontend Engineer</tspan>
      <animate attributeName="opacity" values="0;0;1" dur="0.1s" begin="1.4s" fill="freeze"/>
    </text>
    <rect x="504" y="158" width="9" height="16" fill="#06B6D4">
      <animate attributeName="opacity" values="1;0;1" dur="0.8s" begin="1.4s" repeatCount="indefinite"/>
      <animate attributeName="x" values="504;660;504;700;504;630;504;690;504" dur="12s" begin="1.4s" repeatCount="indefinite"/>
    </rect>

    <!-- divider -->
    <line x1="504" y1="196" x2="1128" y2="196" stroke="rgba(15,23,42,0.08)" stroke-width="1"/>

    <!-- info rows -->
    <g font-family="'JetBrains Mono',monospace" font-size="14.5">
      <g opacity="0">
        <animate attributeName="opacity" begin="1.8s" dur="0.4s" fill="freeze" to="1"/>
        <text x="504" y="226" fill="#475569">📍 Location</text>
        <text x="700" y="226" fill="#0F172A">Electronic City, Bengaluru</text>
      </g>
      <g opacity="0">
        <animate attributeName="opacity" begin="2.2s" dur="0.4s" fill="freeze" to="1"/>
        <text x="504" y="254" fill="#475569">🎓 Education</text>
        <text x="700" y="254" fill="#0F172A">BS Computer Science</text>
      </g>
      <g opacity="0">
        <animate attributeName="opacity" begin="2.6s" dur="0.4s" fill="freeze" to="1"/>
        <text x="504" y="282" fill="#475569">🚀 Current Focus</text>
        <text x="700" y="282" fill="#0F172A">Building Next-Gen UIs</text>
      </g>
      <g opacity="0">
        <animate attributeName="opacity" begin="3.0s" dur="0.4s" fill="freeze" to="1"/>
        <text x="504" y="310" fill="#94A3B8">🌐 Portfolio</text>
        <a href="https://soelnvc.github.io/My_Portfolio/" target="_blank">
          <text x="700" y="310" fill="#22D3EE">soelnvc.github.io/My_Portfolio/</text>
        </a>
      </g>
      <g opacity="0">
        <animate attributeName="opacity" begin="3.4s" dur="0.4s" fill="freeze" to="1"/>
        <text x="504" y="338" fill="#475569">✉️ Email</text>
        <text x="700" y="338" fill="#0F172A">hello@linkedin.com/in/siddheshgoel</text>
      </g>
    </g>

    <line x1="504" y1="360" x2="1128" y2="360" stroke="rgba(15,23,42,0.08)" stroke-width="1"/>

    <!-- skills label -->
    <text x="504" y="388" font-family="'JetBrains Mono',monospace" font-size="14" fill="#475569" opacity="0">
      Skills &amp; Tools
      <animate attributeName="opacity" begin="3.7s" dur="0.4s" fill="freeze" to="1"/>
    </text>

    <!-- skill pills -->
    <g font-family="'JetBrains Mono',monospace" font-size="12.5" font-weight="600">
      <g opacity="0"><animate attributeName="opacity" begin="3.90s" dur="0.35s" fill="freeze" to="1"/>
        <rect x="504" y="402" width="70" height="30" rx="15" fill="rgba(124,58,237,0.15)" stroke="#2563EB" stroke-width="1" filter="url(#pillGlow)">
          <animate attributeName="stroke-width" values="1;1.8;1" dur="2.4s" begin="3.90s" repeatCount="indefinite"/>
        </rect>
        <text x="539.0" y="422" text-anchor="middle" fill="#1D4ED8">React</text>
      </g>
      <g opacity="0"><animate attributeName="opacity" begin="3.97s" dur="0.35s" fill="freeze" to="1"/>
        <rect x="586" y="402" width="87" height="30" rx="15" fill="rgba(34,211,238,0.15)" stroke="#06B6D4" stroke-width="1" filter="url(#pillGlow)">
          <animate attributeName="stroke-width" values="1;1.8;1" dur="2.4s" begin="3.97s" repeatCount="indefinite"/>
        </rect>
        <text x="629.5" y="422" text-anchor="middle" fill="#0E7490">Next.js</text>
      </g>
      <g opacity="0"><animate attributeName="opacity" begin="4.04s" dur="0.35s" fill="freeze" to="1"/>
        <rect x="685" y="402" width="79" height="30" rx="15" fill="rgba(16,185,129,0.15)" stroke="#10B981" stroke-width="1" filter="url(#pillGlow)">
          <animate attributeName="stroke-width" values="1;1.8;1" dur="2.4s" begin="4.04s" repeatCount="indefinite"/>
        </rect>
        <text x="724.5" y="422" text-anchor="middle" fill="#047857">Python</text>
      </g>
      <g opacity="0"><animate attributeName="opacity" begin="4.11s" dur="0.35s" fill="freeze" to="1"/>
        <rect x="776" y="402" width="62" height="30" rx="15" fill="rgba(124,58,237,0.15)" stroke="#2563EB" stroke-width="1" filter="url(#pillGlow)">
          <animate attributeName="stroke-width" values="1;1.8;1" dur="2.4s" begin="4.11s" repeatCount="indefinite"/>
        </rect>
        <text x="807.0" y="422" text-anchor="middle" fill="#1D4ED8">Java</text>
      </g>
      <g opacity="0"><animate attributeName="opacity" begin="4.18s" dur="0.35s" fill="freeze" to="1"/>
        <rect x="850" y="402" width="113" height="30" rx="15" fill="rgba(34,211,238,0.15)" stroke="#06B6D4" stroke-width="1" filter="url(#pillGlow)">
          <animate attributeName="stroke-width" values="1;1.8;1" dur="2.4s" begin="4.18s" repeatCount="indefinite"/>
        </rect>
        <text x="906.5" y="422" text-anchor="middle" fill="#0E7490">JavaScript</text>
      </g>
      <g opacity="0"><animate attributeName="opacity" begin="4.25s" dur="0.35s" fill="freeze" to="1"/>
        <rect x="504" y="442" width="130" height="30" rx="15" fill="rgba(16,185,129,0.15)" stroke="#10B981" stroke-width="1" filter="url(#pillGlow)">
          <animate attributeName="stroke-width" values="1;1.8;1" dur="2.4s" begin="4.25s" repeatCount="indefinite"/>
        </rect>
        <text x="569.0" y="462" text-anchor="middle" fill="#047857">Scikit-Learn</text>
      </g>
      <g opacity="0"><animate attributeName="opacity" begin="4.32s" dur="0.35s" fill="freeze" to="1"/>
        <rect x="646" y="442" width="70" height="30" rx="15" fill="rgba(124,58,237,0.15)" stroke="#2563EB" stroke-width="1" filter="url(#pillGlow)">
          <animate attributeName="stroke-width" values="1;1.8;1" dur="2.4s" begin="4.32s" repeatCount="indefinite"/>
        </rect>
        <text x="681.0" y="462" text-anchor="middle" fill="#1D4ED8">MySQL</text>
      </g>
      <g opacity="0"><animate attributeName="opacity" begin="4.39s" dur="0.35s" fill="freeze" to="1"/>
        <rect x="728" y="442" width="53" height="30" rx="15" fill="rgba(34,211,238,0.15)" stroke="#06B6D4" stroke-width="1" filter="url(#pillGlow)">
          <animate attributeName="stroke-width" values="1;1.8;1" dur="2.4s" begin="4.39s" repeatCount="indefinite"/>
        </rect>
        <text x="754.5" y="462" text-anchor="middle" fill="#0E7490">Git</text>
      </g>
      <g opacity="0"><animate attributeName="opacity" begin="4.46s" dur="0.35s" fill="freeze" to="1"/>
        <rect x="793" y="442" width="70" height="30" rx="15" fill="rgba(16,185,129,0.15)" stroke="#10B981" stroke-width="1" filter="url(#pillGlow)">
          <animate attributeName="stroke-width" values="1;1.8;1" dur="2.4s" begin="4.46s" repeatCount="indefinite"/>
        </rect>
        <text x="828.0" y="462" text-anchor="middle" fill="#047857">Canva</text>
      </g>
      <g opacity="0"><animate attributeName="opacity" begin="4.53s" dur="0.35s" fill="freeze" to="1"/>
        <rect x="875" y="442" width="96" height="30" rx="15" fill="rgba(124,58,237,0.15)" stroke="#2563EB" stroke-width="1" filter="url(#pillGlow)">
          <animate attributeName="stroke-width" values="1;1.8;1" dur="2.4s" begin="4.53s" repeatCount="indefinite"/>
        </rect>
        <text x="923.0" y="462" text-anchor="middle" fill="#1D4ED8">HTML/CSS</text>
      </g>
    </g>

    <line x1="504" y1="498" x2="1128" y2="498" stroke="rgba(15,23,42,0.08)" stroke-width="1"/>

    <!-- social icons -->
    <g opacity="0">
      <animate attributeName="opacity" begin="5s" dur="0.5s" fill="freeze" to="1"/>

      <!-- GitHub -->
      <a href="https://github.com/soelnvc" target="_blank">
      <g>
        <circle cx="524" cy="538" r="22" fill="rgba(15,23,42,0.035)" stroke="rgba(15,23,42,0.08)" stroke-width="1"/>
        <circle cx="524" cy="538" r="22" fill="none" stroke="#06B6D4" stroke-width="1" opacity="0.5" filter="url(#pillGlow)">
          <animate attributeName="opacity" values="0.3;0.8;0.3" dur="3s" repeatCount="indefinite"/>
        </circle>
        <path transform="translate(512,526) scale(0.85)" fill="#0F172A" d="M12 .5C5.65.5.5 5.65.5 12c0 5.1 3.29 9.42 7.86 10.95.57.1.78-.25.78-.55 0-.27-.01-1.15-.02-2.09-3.2.7-3.88-1.36-3.88-1.36-.52-1.34-1.28-1.69-1.28-1.69-1.04-.72.08-.71.08-.71 1.15.08 1.76 1.18 1.76 1.18 1.03 1.76 2.7 1.25 3.36.96.1-.75.4-1.25.73-1.54-2.55-.29-5.24-1.28-5.24-5.68 0-1.26.45-2.28 1.18-3.09-.12-.29-.51-1.46.11-3.05 0 0 .97-.31 3.18 1.18a11 11 0 0 1 5.79 0c2.2-1.49 3.17-1.18 3.17-1.18.63 1.59.24 2.76.12 3.05.74.81 1.18 1.83 1.18 3.09 0 4.41-2.69 5.38-5.25 5.67.41.36.78 1.06.78 2.13 0 1.54-.01 2.78-.01 3.16 0 .3.2.66.79.55A11.5 11.5 0 0 0 23.5 12C23.5 5.65 18.35.5 12 .5Z"/>
      </g>
      </a>

      <!-- LinkedIn -->
      <a href="https://www.linkedin.com/in/siddheshgoel/" target="_blank">
      <g>
        <circle cx="584" cy="538" r="22" fill="rgba(15,23,42,0.035)" stroke="rgba(15,23,42,0.08)" stroke-width="1"/>
        <circle cx="584" cy="538" r="22" fill="none" stroke="#2563EB" stroke-width="1" opacity="0.5" filter="url(#pillGlow)">
          <animate attributeName="opacity" values="0.3;0.8;0.3" dur="3s" begin="0.4s" repeatCount="indefinite"/>
        </circle>
        <path transform="translate(572,526) scale(0.85)" fill="#0F172A" d="M5.34 3a2.34 2.34 0 1 1 0 4.68 2.34 2.34 0 0 1 0-4.68ZM.9 8.9h4.9V23H.9V8.9Zm7.7 0h4.7v1.93h.07c.65-1.24 2.25-2.55 4.63-2.55 4.95 0 5.87 3.26 5.87 7.5V23h-4.9v-6.34c0-1.51-.03-3.46-2.11-3.46-2.11 0-2.44 1.65-2.44 3.35V23H8.6V8.9Z"/>
      </g>
      </a>

      <!-- Instagram -->
      <a href="https://www.instagram.com/su.sid.al?utm_source=ig_web_button_share_sheet&amp;igsh=ZDNlZDc0MzIxNw==" target="_blank">
      <g>
        <circle cx="644" cy="538" r="22" fill="rgba(15,23,42,0.035)" stroke="rgba(15,23,42,0.08)" stroke-width="1"/>
        <circle cx="644" cy="538" r="22" fill="none" stroke="#E1306C" stroke-width="1" opacity="0.5" filter="url(#pillGlow)">
          <animate attributeName="opacity" values="0.3;0.8;0.3" dur="3s" begin="0.8s" repeatCount="indefinite"/>
        </circle>
        <path transform="translate(632,526) scale(0.85)" fill="#0F172A" d="M12 2.163c3.204 0 3.584.012 4.85.07 3.252.148 4.771 1.691 4.919 4.919.058 1.265.069 1.645.069 4.849 0 3.205-.012 3.584-.069 4.849-.149 3.225-1.664 4.771-4.919 4.919-1.266.058-1.644.07-4.85.07-3.204 0-3.584-.012-4.849-.07-3.26-.149-4.771-1.699-4.919-4.92-.058-1.265-.07-1.644-.07-4.849 0-3.204.013-3.583.07-4.849.149-3.227 1.664-4.771 4.919-4.919 1.266-.057 1.645-.069 4.849-.069zm0-2.163c-3.259 0-3.667.014-4.947.072-4.358.2-6.78 2.618-6.98 6.98-.059 1.281-.073 1.689-.073 4.948 0 3.259.014 3.668.072 4.948.2 4.358 2.618 6.78 6.98 6.98 1.281.058 1.689.072 4.948.072 3.259 0 3.668-.014 4.948-.072 4.354-.2 6.782-2.618 6.979-6.98.059-1.28.073-1.689.073-4.948 0-3.259-.014-3.667-.072-4.947-.196-4.354-2.617-6.78-6.979-6.98-1.281-.059-1.69-.073-4.949-.073zm0 5.838c-3.403 0-6.162 2.759-6.162 6.162s2.759 6.163 6.162 6.163 6.162-2.759 6.162-6.163c0-3.403-2.759-6.162-6.162-6.162zm0 10.162c-2.209 0-4-1.79-4-4 0-2.209 1.791-4 4-4s4 1.791 4 4c0 2.21-1.791 4-4 4zm6.406-11.845c-.796 0-1.441.645-1.441 1.44s.645 1.44 1.441 1.44c.795 0 1.439-.645 1.439-1.44s-.644-1.44-1.439-1.44z"/>
      </g>
      </a>

      <!-- Portfolio -->
      <a href="https://soelnvc.github.io/My_Portfolio/" target="_blank">
      <g>
        <circle cx="704" cy="538" r="22" fill="rgba(15,23,42,0.035)" stroke="rgba(15,23,42,0.08)" stroke-width="1"/>
        <circle cx="704" cy="538" r="22" fill="none" stroke="#10B981" stroke-width="1" opacity="0.5" filter="url(#pillGlow)">
          <animate attributeName="opacity" values="0.3;0.8;0.3" dur="3s" begin="1.2s" repeatCount="indefinite"/>
        </circle>
        <g transform="translate(692,526) scale(0.85)" fill="none" stroke="#0F172A" stroke-width="1.6">
          <circle cx="12" cy="12" r="10"/>
          <path d="M2 12h20M12 2c2.5 2.7 4 6.3 4 10s-1.5 7.3-4 10c-2.5-2.7-4-6.3-4-10s1.5-7.3 4-10Z"/>
        </g>
      </g>
      </a>

      <text x="504" y="580" font-family="'JetBrains Mono',monospace" font-size="12" fill="#64748B">github.com/soelnvc · instagram.com/su.sid.al · soelnvc.github.io/My_Portfolio/</text>
    </g>
  </g>

  <!-- glass reflection sweep over whole canvas -->
  <rect x="-200" y="0" width="150" height="610" fill="rgba(15,23,42,0.025)" transform="skewX(-20)">
    <animate attributeName="x" values="-300;1300" dur="7s" begin="1s" repeatCount="indefinite"/>
  </rect>
</g>
</svg>
